PathFileType  4	(X/Y/Z) C:\Users\wagnerel85475\Documents\Thesis\opencap-core\Data\3375ffbc-daeb-4a43-b4f7-ac9899cd4c71\MarkerData\PreAugmentation
DataRate	CameraRate	NumFrames	NumMarkers	Units	OrigDataRate	OrigDataStartFrame	OrigNumFrames
60.0	60.0	14	20	m	60.0	514	822
Frame#	Time	Neck			RShoulder			RElbow			RWrist			LShoulder			LElbow			LWrist			midHip			RHip			RKnee			RAnkle			LHip			LKnee			LAnkle			LBigToe			LSmallToe			LHeel			RBigToe			RSmallToe			RHeel			
		X1	Y1	Z1	X2	Y2	Z2	X3	Y3	Z3	X4	Y4	Z4	X5	Y5	Z5	X6	Y6	Z6	X7	Y7	Z7	X8	Y8	Z8	X9	Y9	Z9	X10	Y10	Z10	X11	Y11	Z11	X12	Y12	Z12	X13	Y13	Z13	X14	Y14	Z14	X15	Y15	Z15	X16	Y16	Z16	X17	Y17	Z17	X18	Y18	Z18	X19	Y19	Z19	X20	Y20	Z20	

514	8.5500000	0.6026100	1.3660900	-0.0745800	0.6149800	1.3663500	0.1147900	0.7845100	1.1646100	0.1695600	1.0937000	1.1680600	0.0804200	0.6189100	1.3630700	-0.2533400	0.9213600	1.1414300	-0.2641400	1.2171000	1.1970400	-0.1106800	0.6717900	0.8139400	-0.0580200	0.6906300	0.8120000	0.0716400	0.5890800	0.3450200	0.0667600	0.5051900	-0.1864900	0.1227000	0.6622900	0.8139600	-0.1810200	0.5857300	0.3373800	-0.1825200	0.5195700	-0.1717300	-0.2442900	0.7353400	-0.2192600	-0.3175700	0.6622000	-0.2262700	-0.3515800	0.4701900	-0.2281300	-0.2133600	0.7081000	-0.2317400	0.2275300	0.6652700	-0.2313000	0.2513700	0.4934400	-0.2235100	0.1018400
515	8.5666667	0.6028200	1.3661000	-0.0742300	0.6161400	1.3658700	0.1154400	0.7836300	1.1686500	0.1691600	1.1147400	1.1800600	0.0730300	0.6184800	1.3633600	-0.2532800	0.9294700	1.1475900	-0.2598000	1.2255400	1.1964400	-0.1064200	0.6718700	0.8109400	-0.0574300	0.6810000	0.8108800	0.0689800	0.5905600	0.3407800	0.0666800	0.5057500	-0.1856700	0.1228700	0.6623700	0.8141500	-0.1809700	0.5758400	0.3321700	-0.1857500	0.5196200	-0.1717300	-0.2442900	0.7446000	-0.2158100	-0.3213300	0.6622900	-0.2261800	-0.3517700	0.4696100	-0.2290100	-0.2133800	0.7083800	-0.2313700	0.2273400	0.6656500	-0.2311500	0.2513500	0.5036700	-0.2197400	0.0968100
516	8.5833333	0.6129200	1.3694300	-0.0708000	0.6151700	1.3693600	0.1148200	0.7846000	1.1653900	0.1695600	1.1141100	1.1829000	0.0682400	0.6285900	1.3664200	-0.2493300	0.9375200	1.1488300	-0.2637400	1.2319300	1.2008500	-0.1037800	0.6627200	0.8097700	-0.0536000	0.6722100	0.8067000	0.0729600	0.5803900	0.3278400	0.0713000	0.5054000	-0.1864400	0.1226400	0.6617000	0.8140700	-0.1808300	0.5855700	0.3372400	-0.1906400	0.5195100	-0.1717600	-0.2442900	0.7355600	-0.2192600	-0.3175500	0.6624200	-0.2262100	-0.3516100	0.4692600	-0.2320800	-0.2139400	0.7079300	-0.2319900	0.2275100	0.6652200	-0.2315800	0.2513300	0.5036600	-0.2171700	0.0965300
517	8.6000000	0.6133700	1.3693500	-0.0703900	0.6166300	1.3687300	0.1154800	0.7934000	1.1610000	0.1723800	1.1386700	1.1773700	0.0751700	0.6281300	1.3666600	-0.2493000	0.9375600	1.1445200	-0.2636300	1.2103600	1.2024300	-0.1132300	0.6628900	0.8099800	-0.0531800	0.6721500	0.8098200	0.0733900	0.5898900	0.3268500	0.0676600	0.5055200	-0.1817000	0.1234400	0.6618100	0.8143200	-0.1808200	0.5957700	0.3357500	-0.1952000	0.5195000	-0.1718300	-0.2442600	0.7352400	-0.2230400	-0.3180800	0.6623800	-0.2262900	-0.3517100	0.4589200	-0.2360900	-0.2176200	0.7086100	-0.2314100	0.2272700	0.6658900	-0.2313400	0.2512900	0.4958300	-0.2198500	0.1007100
518	8.6166667	0.6126900	1.3732000	-0.0707800	0.6153100	1.3694700	0.1148400	0.8041300	1.1628700	0.1757600	1.1464200	1.1802900	0.0735900	0.6285900	1.3704800	-0.2493300	0.9217600	1.1479600	-0.2718600	1.2245700	1.2038700	-0.1072200	0.6617800	0.8096400	-0.0534200	0.6615100	0.8054200	0.0697700	0.5807200	0.3203400	0.0713500	0.5050400	-0.1824700	0.1232500	0.6610500	0.8151000	-0.1803900	0.6051000	0.3373600	-0.1995800	0.5194200	-0.1718300	-0.2442900	0.7351300	-0.2230200	-0.3180400	0.6624600	-0.2262800	-0.3515500	0.4605500	-0.2318000	-0.2171100	0.7080800	-0.2319500	0.2274900	0.6653900	-0.2316000	0.2513100	0.4945600	-0.2202100	0.1011900
519	8.6333333	0.6127500	1.3731000	-0.0704700	0.6165500	1.3717600	0.1155300	0.8230600	1.1704600	0.1818700	1.1616100	1.1911200	0.0773100	0.6368700	1.3705400	-0.2531900	0.9374800	1.1481300	-0.2637300	1.2180100	1.2027400	-0.1099200	0.6524800	0.8095600	-0.0560500	0.6509500	0.8042200	0.0670400	0.5810800	0.3171300	0.0724900	0.5056300	-0.1816600	0.1235100	0.6438500	0.8102000	-0.1798200	0.6055000	0.3302800	-0.1994600	0.5195100	-0.1718400	-0.2442800	0.7351400	-0.2231500	-0.3181000	0.6622600	-0.2263700	-0.3517400	0.4600200	-0.2328200	-0.2170900	0.7086900	-0.2314000	0.2273100	0.6660200	-0.2313400	0.2513300	0.4959100	-0.2197100	0.1007400
520	8.6500000	0.6127500	1.3733700	-0.0708100	0.6151800	1.3765800	0.1148000	0.8433600	1.1679400	0.1881200	1.1606400	1.1938900	0.0730400	0.6380600	1.3736000	-0.2531000	0.9454100	1.1599300	-0.2600900	1.2319400	1.2073500	-0.1037200	0.6431800	0.8082100	-0.0523900	0.6304300	0.8020800	0.0595900	0.5826100	0.3272700	0.0813400	0.5052000	-0.1823900	0.1232900	0.6430200	0.8098700	-0.1798300	0.6150200	0.3357400	-0.2041300	0.5191500	-0.1756900	-0.2448200	0.7350000	-0.2232200	-0.3179800	0.6621700	-0.2232100	-0.3521700	0.4597000	-0.2357400	-0.2177000	0.7080000	-0.2321200	0.2274900	0.6653500	-0.2317800	0.2513000	0.5037400	-0.2168900	0.0965900
521	8.6666667	0.6235100	1.3763900	-0.0666700	0.6165700	1.3759500	0.1154800	0.8597500	1.1646900	0.1866500	1.1679800	1.1952500	0.0732900	0.6375300	1.3738000	-0.2530700	0.9452900	1.1673100	-0.2595500	1.2391200	1.2066000	-0.1065600	0.6333200	0.8032700	-0.0555400	0.6300300	0.8018300	0.0602300	0.5932800	0.3231300	0.0833500	0.5061500	-0.1855600	0.1229100	0.6243500	0.8038200	-0.1716300	0.6060400	0.3342700	-0.2078600	0.5193100	-0.1757400	-0.2448900	0.7352400	-0.2232000	-0.3181000	0.6621300	-0.2232800	-0.3523400	0.4590500	-0.2365300	-0.2178400	0.7086700	-0.2315100	0.2273000	0.6659300	-0.2314400	0.2512800	0.5050500	-0.2163800	0.0961000
522	8.6833333	0.6332900	1.3730700	-0.0633600	0.6160500	1.3766500	0.1149200	0.8607500	1.1583500	0.1868000	1.1757900	1.1969000	0.0718200	0.6475500	1.3734600	-0.2492300	0.9447100	1.1604300	-0.2601500	1.2384300	1.2075600	-0.1074200	0.6043800	0.8031100	-0.0511500	0.6116200	0.8061100	0.0599900	0.6128400	0.3245100	0.0901700	0.5053600	-0.1823700	0.1233000	0.6043400	0.8042200	-0.1632800	0.6077500	0.3364000	-0.2089000	0.5284100	-0.1726300	-0.2487800	0.7352000	-0.2231800	-0.3179800	0.6625000	-0.2264000	-0.3515200	0.4589200	-0.2392400	-0.2185100	0.7081700	-0.2321300	0.2274500	0.6654100	-0.2317800	0.2512500	0.5039200	-0.2170300	0.0965400
523	8.7000000	0.6434300	1.3725300	-0.0594200	0.6171400	1.3757500	0.1156300	0.8606400	1.1639100	0.1866100	1.1888600	1.1960600	0.0682000	0.6471600	1.3735200	-0.2492800	0.9451500	1.1630300	-0.2597300	1.2468600	1.2034900	-0.1032000	0.5654400	0.7951500	-0.0490300	0.5913600	0.7972400	0.0623600	0.6261700	0.3305500	0.1015200	0.5060400	-0.1889400	0.1235700	0.5861500	0.7947400	-0.1625100	0.6341400	0.3605800	-0.2181600	0.5284900	-0.1726300	-0.2488200	0.7436200	-0.2202100	-0.3143500	0.6624900	-0.2264800	-0.3517300	0.4587300	-0.2362800	-0.2180100	0.7085700	-0.2316500	0.2272800	0.6558300	-0.2352000	0.2486300	0.5043900	-0.2195300	0.0967100
524	8.7166667	0.6436300	1.3689900	-0.0596400	0.6349500	1.3720900	0.1138200	0.8609200	1.1575600	0.1868900	1.1613200	1.1939600	0.0729700	0.6482400	1.3732800	-0.2490900	0.9450600	1.1639000	-0.2598100	1.2466700	1.2042700	-0.1039500	0.5452000	0.7885600	-0.0489100	0.5719600	0.7907700	0.0628200	0.6268600	0.3346800	0.1092100	0.5054900	-0.1896600	0.1234400	0.5754000	0.7887300	-0.1664300	0.6321000	0.3558500	-0.2179400	0.5284400	-0.1727200	-0.2489100	0.7433000	-0.2203200	-0.3141700	0.6625700	-0.2302000	-0.3520500	0.4490500	-0.2424200	-0.2224300	0.7080400	-0.2325100	0.2274400	0.6553800	-0.2357600	0.2486000	0.5031400	-0.2203100	0.0971800
525	8.7333333	0.6441600	1.3687200	-0.0592100	0.6278700	1.3713800	0.1189200	0.8606100	1.1620600	0.1867300	1.1830300	1.1861400	0.0721000	0.6569100	1.3660600	-0.2452200	0.9460800	1.1485800	-0.2674600	1.2478600	1.1998600	-0.1031000	0.5357200	0.7798900	-0.0520800	0.5625600	0.7819100	0.0678700	0.6280600	0.3348400	0.1099500	0.5057600	-0.1890800	0.1236600	0.5658200	0.7837300	-0.1704500	0.6322100	0.3483400	-0.2192200	0.5284600	-0.1726200	-0.2489200	0.7345000	-0.2235100	-0.3105100	0.6710400	-0.2235300	-0.3478000	0.4589200	-0.2360400	-0.2259800	0.7004900	-0.2347700	0.2319400	0.6558400	-0.2354100	0.2486400	0.5134600	-0.2168300	0.0920000
526	8.7500000	0.6619500	1.3683700	-0.0600600	0.6455100	1.3682800	0.1170200	0.8607400	1.1660200	0.1868100	1.1762300	1.1780300	0.0721800	0.6668200	1.3622200	-0.2489600	0.9531000	1.1649500	-0.2636500	1.2474600	1.1944200	-0.1040200	0.5352900	0.7755000	-0.0527600	0.5627700	0.7777600	0.0669700	0.6377100	0.3255200	0.1124800	0.4965000	-0.1927300	0.1279300	0.5461100	0.7808400	-0.1704300	0.6419300	0.3431500	-0.2237500	0.5284600	-0.1726900	-0.2489000	0.7433200	-0.2202300	-0.3141800	0.6719100	-0.2228900	-0.3552600	0.4587000	-0.2389100	-0.2185900	0.6992800	-0.2316200	0.2327200	0.6546700	-0.2318600	0.2493100	0.5030700	-0.2206800	0.0971200
527	8.7666667	0.6627600	1.3574500	-0.0595700	0.6579700	1.3590400	0.1211000	0.8514500	1.1639200	0.1837000	1.1814200	1.1794000	0.0722400	0.6754000	1.3547700	-0.2451600	0.9701600	1.1568100	-0.2632600	1.2571300	1.1833200	-0.0999900	0.5254600	0.7744200	-0.0559700	0.5528700	0.7796800	0.0639900	0.6409700	0.3265000	0.1207000	0.4967600	-0.1922700	0.1282600	0.5258600	0.7789300	-0.1784000	0.6554700	0.3441600	-0.2369600	0.5286200	-0.1766000	-0.2494700	0.7351700	-0.2233000	-0.3180800	0.6624800	-0.2263900	-0.3518100	0.4677200	-0.2399800	-0.2232600	0.6997300	-0.2308200	0.2325700	0.6547100	-0.2275200	0.2499900	0.5026800	-0.2261700	0.0981000
